Patient4_TMGait_0pt7_02_right_04_EMG.mot
version=1
nRows=37
nColumns=33
inDegrees=no
endheader
time	1LAddLong	2LGlutMax	3LGlutMed	4LIliopsoas	5LSemiMemb	6LBicFemLong	7LRecFem	8LVastMed	9LVastLat	10LGasMed	11LTibAnt	12lTibPost	13LPeroneusLong	14LSol	15LExtDigLong	16LFlexDigLong	17RAddLong	18RGlutMax	19RGlutMed	20RIliopsoas	21RSemiMemb	22RBicFemLong	23RRecFem	24RVastMed	25RVastLat	26RGasMed	27RTibAnt	28RTibPost	29RPeroneusLong	30RSol	31RExtDigLong	32RFlexDigLong
4.007	-0.001984	-0.38864	0.15381	0.022736	0.024872	-0.012817	-0.79254	0.0177	0.005646	-0.036316	-0.26825	0.003967	-0.14145	0.14923	0.96863	0.008392	0.007019	-0.44571	-0.99274	-0.13001	-0.089722	-0.22079	0.33554	0.24887	0.09491	0.046082	-0.53619	-0.032806	-0.11368	-1.2891	0.008392	-0.026093
4.008	-0.002594	-0.41229	0.1474	-0.001678	0.024261	-0.003967	-0.79804	0.020599	-0.016785	-0.027771	-0.2475	0.007172	-0.16647	0.1239	0.784	0.00885	0.021667	-0.39505	-0.59631	-0.071411	0.017395	0.000763	0.41534	0.078735	-0.037994	-0.003662	-0.51209	-0.038757	-0.26871	-0.9021	0.009003	-0.027008
4.009	-0.002594	-0.50934	0.12177	0.017395	0.026398	0.000458	-0.54489	0.029907	-0.01297	-0.02533	0.1506	0.003052	-0.15991	0.11002	-0.58975	-0.003815	0.036316	-0.32974	-1.2849	-0.02243	0.04425	-0.093689	0.43457	0.053864	-0.081177	0.011139	-0.64865	-0.036774	-0.071259	0.439	0.008087	-0.016937
4.01	-0.004883	-0.53635	0.11307	0.018768	0.016632	-0.011444	-0.30472	0.014496	-0.00061	-0.071106	0.27573	0.002899	-0.068207	0.1445	-0.47394	0.011139	0.027618	-0.37308	-1.4276	0.10254	-0.001526	-0.064697	0.49972	0.050964	-0.03952	0.024872	-1.1418	-0.058899	0.069885	1.0867	0.005951	-0.003815
4.011	0.010223	-0.5748	0.13336	0.003815	0.013275	-0.005798	-0.21683	0.005798	0.004272	-0.042267	-0.068512	0.001831	-0.13641	0.16769	-0.52567	-0.001984	0.006409	-0.37262	-1.2131	0.061798	-0.033569	-0.31128	0.52887	0.13977	-0.012207	-0.011597	-0.91583	-0.27344	0.24323	0.60364	0.010681	-0.006409
4.012	-0.00473	-0.61325	0.1358	-0.019531	0.005951	-0.019226	-0.13657	0.005035	-0.013428	-0.055542	-0.27176	0.004578	-0.025024	0.1828	-0.61005	0.012207	0.00412	-0.49606	-1.2543	0.003052	-0.090027	-0.40375	0.57129	0.13306	-0.00061	-0.032806	-0.86273	-0.085754	0.13336	0.00824	0.01236	-0.007019
4.013	-0.01236	-0.58212	0.12894	-0.022583	0.024109	-0.010681	-0.007782	-0.005798	-0.014801	-0.054626	-0.052643	0.007477	-0.006714	0.19241	-0.16419	0.018158	-0.01709	-0.51102	-1.1061	-0.075684	-0.12329	-0.23987	0.616	0.085907	-0.041046	-0.064392	-1.1745	-0.095215	0.036316	0.14999	0.009155	-0.013123
4.014	-0.005646	-0.57602	0.10956	-0.029449	0.022888	-0.019226	0.062561	-0.003204	-0.006104	-0.015717	-0.084381	0.001984	-0.008392	0.13229	0.15274	0.000916	-0.015259	-0.70114	-1.4726	-0.048676	-0.08606	0.00473	0.55359	0.12421	-0.040588	-0.054779	-1.2695	-0.61783	0.068817	-0.020294	0.01358	-0.010223
4.015	-0.002747	-0.54001	0.094147	-0.009155	0.00824	-0.021515	0.10834	-0.005493	-0.002289	0.045471	0.014343	0.006561	-0.1741	0.081177	0.039215	-0.006104	-0.018311	-0.91309	-1.973	0.065002	0.013428	0.25223	0.44022	0.18204	-0.059509	0.001984	-0.802	0.59296	0.13107	0.8989	0.011597	-0.010529
4.016	0.002441	-0.39932	0.075378	-0.000305	0.028534	-0.036774	0.075989	-0.010071	0.018921	0.045013	-0.079956	0.003662	-0.16098	0.11993	0.033875	-0.009918	-0.021667	-1.0927	-1.9981	0.13443	0.058594	0.077972	0.39749	0.14633	-0.090027	-0.021057	0.18723	0.42679	-0.029449	0.85846	0.010986	-0.008545
4.017	-0.002594	-0.26825	0.052185	-0.030823	0.014191	-0.019226	0.078583	-0.005493	0.02533	0.025635	0.040436	0.003815	-0.10498	0.14648	-0.049133	-0.028076	-0.013428	-1.1079	-1.851	0.16922	0.056458	0.089569	0.31555	0.051727	-0.1152	-0.070038	1.3872	0.1088	-0.28732	0.49301	0.012817	-0.018616
4.018	-0.002441	-0.093231	0.053253	-0.012512	0.023193	-0.046539	0.11169	0.010223	0.024567	0.020905	0.41519	0.00412	-0.13779	0.062103	0.22888	-0.021515	-0.018768	-1.0135	-1.4577	0.084534	0.012665	0.29282	0.066223	0.006866	-0.10422	-0.054474	2.1141	0.01358	-0.32333	0.31158	0.009003	-0.020142
4.019	0.00351	0.045929	0.041199	-0.02533	0.021057	-0.051422	0.10635	-0.001068	0.026245	0.049744	0.14923	0.009308	-0.076599	-0.10452	0.049744	-0.022278	-0.017242	-1.0745	-1.6237	0.042267	-0.015564	0.12558	0.047302	0.087891	-0.11826	-0.10513	3.0087	0.008698	-0.33157	0.49332	0.014191	-0.024109
4.02	0.007324	0.20889	0.050964	-0.044556	0.021515	-0.066833	0.13016	0.003967	0.031738	0.0177	0.024872	0.016327	0.01236	-0.076599	0.76233	-0.022583	-0.007019	-1.082	-1.6142	-0.001068	-0.007935	0.11292	0.2533	0.14862	-0.066071	-0.090027	1.2337	-0.010223	0.00824	-0.30243	0.014496	-0.007324
4.021	0.00412	0.35172	0.044556	-0.02594	0.02182	-0.085754	0.1474	0.014038	0.027161	0.031128	-0.015869	0.003052	-0.03418	0.058746	-0.17502	-0.019989	-0.018768	-1.1035	-1.4214	-0.012207	0.005951	0.10239	0.12192	0.24033	0.10223	-0.027313	-0.45181	-0.024261	0.42328	-0.67947	0.003052	-0.003967
4.022	0.004272	0.54001	0.032806	0.001678	0.031586	-0.072174	0.15549	0.006409	0.032196	0.012512	-0.23071	0.010529	-0.039063	0.083771	-0.55252	-0.010681	-0.008698	-1.0727	-1.7494	0.014191	0.059509	-0.17441	-0.052338	0.14969	0.034485	0.081024	-0.40237	-0.041962	-0.022125	-0.48828	0.007782	-0.007629
4.023	-0.001831	0.61295	0.030212	-0.012665	0.023346	-0.079651	0.14847	0.00473	0.038757	0.010529	-0.21378	0.011902	-0.097656	0.077057	-0.35904	-0.018616	0.014496	-1.19	-1.3242	0.024261	0.058899	-0.35477	0.09079	0.11658	0.024109	0.103	-1.7059	-0.037994	-0.10986	-0.10696	0.013275	-0.015259
4.024	-0.005951	0.8313	0.082855	0.006561	0.019836	-0.056763	0.14618	0.005798	0.0383	0.010223	-0.10056	0.003967	-0.1329	0.075226	-0.28534	-0.005188	0.029907	-1.2582	-1.2381	-0.011597	0.059662	-0.43671	0.20279	0.047455	-0.001068	0.066681	-2.0992	-0.035858	0.13809	0.061798	0.016174	-0.010376
4.025	-0.009766	0.94986	0.12177	0.034485	0.021667	-0.028076	0.17456	0.003815	0.039673	0.044098	-0.052795	0.013123	-0.16754	-0.026703	-0.24017	0.000458	0.018921	-1.2978	-1.3582	-0.028534	-0.13794	-0.38864	0.3064	-0.082855	-0.11459	0.032806	-1.4069	-0.03067	0.1297	0.21713	0.026855	-0.011444
4.026	-0.012207	1.0612	0.044098	0.024872	0.025482	-0.035095	0.14587	0.00351	0.046234	0.055084	-0.098267	0.012665	-0.11459	-0.00946	-0.24384	-0.014343	0.000458	-1.3304	-1.0745	0.02121	-0.22812	-0.11078	0.26932	-0.041656	-0.1178	0.001984	-0.36316	-0.030823	-0.1358	0.27054	0.014954	-0.011292
4.027	-0.011749	1.1676	0.028687	-0.016632	0.026855	-0.038147	0.14938	0.01236	0.022736	0.062408	0.021362	0.009003	-0.039978	0.045319	-0.17364	-0.018463	-0.0354	-1.2994	-0.79498	0.01709	-0.071716	0.10727	0.093079	-0.046387	-0.08316	-0.024872	0.086975	-0.030823	-0.029755	0.31128	0.014343	-0.022583
4.028	-0.012054	1.2402	0.1091	0.00351	0.027161	-0.007782	0.15793	0.007782	-0.001526	0.079498	0.19104	0.010529	-0.12955	0.000153	0.026855	-0.014801	-0.019531	-1.1375	-0.66513	-0.058441	0.00946	0.063934	-0.14053	-0.092773	-0.045624	-0.060272	0.085449	-0.042572	0.15305	0.41977	0.013123	-0.019989
4.029	-0.013123	1.2412	0.033264	0.016479	0.020752	-0.014191	0.18616	0.009613	-0.00412	0.07431	0.085449	0.019989	-0.13168	0.037842	0.039063	-0.017853	-0.014801	-1.1043	-0.74493	-0.10162	0.032806	-0.10513	-0.12421	-0.075684	0.015869	-0.01709	0.46936	-0.038757	0.36392	0.45044	0.015869	-0.015411
4.03	-0.009155	1.243	-0.033875	-0.004272	0.019989	0.007019	0.26077	0.005798	-0.005188	0.090179	-0.016022	0.010376	-0.082703	0.088654	0.035095	-0.017395	0.000916	-1.1082	-0.76508	-0.045166	0.057526	-0.040436	0.005035	-0.029144	0.14023	-0.023651	0.44479	-0.035553	0.21408	0.25497	0.011292	-0.010834
4.031	-0.000153	1.2419	-0.068817	-0.028992	0.019531	0.019531	0.30731	0.006561	-0.012054	0.063782	-0.013123	0.010223	-0.052338	0.1181	0.14404	-0.015717	0.009766	-0.98038	-0.48248	-0.026855	0.062866	0.062866	0.034943	0.054016	0.075531	-0.09613	-0.327	-0.039215	0.063477	0.13565	0.010529	-0.016785
4.032	-0.005188	1.2335	-0.065765	-0.006561	0.015106	0.019379	0.46234	0.007324	-0.011597	0.066528	0.040894	0.009918	-0.075684	0.094147	0.34042	-0.007629	0.017853	-0.89157	-0.19409	-0.062866	0.031128	-0.088348	0.12756	0.21484	0.09552	0.023956	-0.3154	-0.045624	0.13092	-0.053406	0.014954	-0.012817
4.033	-0.00946	1.1725	-0.10239	-0.008545	0.011749	0.023499	0.60059	0.003967	-0.007935	0.078583	-0.040436	0.005341	-0.036316	0.067902	0.17166	-0.015411	0.025177	-0.84595	-0.093994	-0.019531	0.023651	-0.37445	0.20233	0.094757	0.044098	0.07019	-0.13367	-0.061493	0.070496	-0.27435	0.01358	-0.017242
4.034	-0.007324	1.1465	-0.11719	-0.012512	0.010529	0.015411	0.63187	-0.001831	0.014038	0.066223	-0.16159	0.008392	-0.004883	0.060883	0.24445	-0.016174	0.008087	-0.63675	0.045929	-0.059662	0.037384	-0.32257	0.23331	0.032654	-0.16159	0.12726	-0.079041	-0.00946	0.10605	-0.15259	0.010529	-0.009766
4.035	-0.00946	1.0829	-0.11444	-0.001984	0.006409	0.027161	0.62408	-0.000916	0.027313	0.071411	-0.060272	0.008698	-0.063934	0.052948	0.18768	0.000305	0.007935	-0.38498	0.20432	-0.014343	0.010529	0.019684	0.17548	-0.20447	-0.28183	0.033569	0.1297	-0.041046	0.011444	0.26962	0.01297	-0.012054
4.036	-0.00473	0.99869	-0.12085	-0.00473	0.012207	0.006409	0.6247	-0.002289	0.034637	0.093231	0.054016	0.006104	-0.11536	0.005341	0.11368	-0.003204	0.005798	-0.27664	0.45898	-0.007782	-0.020447	0.14328	-0.10895	-0.62805	-0.21103	-0.001984	0.016785	-0.074768	-0.063934	0.90057	0.013275	-0.00885
4.037	-0.005188	0.91904	-0.12283	-0.005646	0.014191	-0.012512	0.62698	-0.009613	0.044861	0.080109	0.031738	0.007019	-0.075684	-0.033264	0.028687	-0.003815	-0.009308	-0.19455	0.84915	0.024719	-0.048676	0.30365	-0.2742	-0.34851	-0.15991	-0.061035	0.1033	-0.16724	-0.24704	1.1871	0.010681	-0.000305
4.038	-0.006866	0.69733	-0.12619	0.004883	0.023956	-0.019073	0.62714	-0.018616	0.062866	0.069885	-0.020142	0.00946	-0.015106	0.023956	0.02533	-0.01297	-0.007935	-0.015564	0.7637	0.020752	-0.068817	0.20538	0.1471	-0.035248	-0.17517	-0.15213	0.18875	-0.10696	-0.35751	0.78323	0.011444	-0.010986
4.039	-0.011902	0.4277	-0.13825	-0.010834	0.010986	-0.01358	0.55252	-0.00824	0.067291	0.076447	0.028992	0.006409	-0.055695	0.065918	0.034027	-0.013123	-0.023499	0.046692	1.0561	0.006714	-0.037231	0.10757	0.18982	0.19669	-0.11002	-0.092468	0.22308	0.11429	-0.31952	-0.081635	0.013733	-0.013123
4.04	-0.007629	0.16312	-0.12573	0.005035	0.02243	-0.036011	0.41977	-0.018768	0.071869	0.072327	0.082703	0.011902	-0.10788	0.096741	0.068512	-0.017548	-0.018616	0.10513	1.0777	-0.041809	-0.008392	-0.08728	-0.075684	0.25589	0.056152	-0.037689	0.19104	0.2385	-0.10544	-1.0011	0.007935	-0.024719
4.041	-0.00412	-0.05127	-0.12985	-0.006561	0.017548	-0.053558	0.25757	-0.019073	0.085297	0.078735	0.10941	0.009918	-0.095215	0.03479	0.033264	-0.006866	-0.031738	0.12177	1.0361	-0.037079	0.028381	-0.29022	-0.37384	0.43091	0.34531	0.000305	0.072327	0.079956	-0.024872	-0.80841	0.011444	-0.020447
4.042	-0.003967	-0.17609	-0.1181	-0.004272	0.017548	-0.070496	0.19959	-0.016937	0.095367	0.059509	0.027161	0.013275	-0.080261	0.004883	-0.001984	-0.014191	-0.011749	0.091248	0.8461	-0.052795	0.012512	-0.56564	-0.1442	0.57007	0.35355	-0.023651	0.59647	0.051575	-0.21179	-0.63721	0.009918	-0.015564
4.043	-0.013885	-0.24216	-0.13489	-0.011749	0.015106	-0.066071	0.21423	-0.022583	0.09552	0.053406	-0.15564	0.010529	-0.030518	0.054321	-0.046692	0.004883	0.015411	0.17838	0.79178	-0.00824	-0.063477	-0.45929	0.21225	0.6012	0.24735	-0.008392	0.97748	0.043488	-0.38742	-0.056305	0.003357	-0.00412
